<?xml version="1.0" encoding="utf-8"?>
<svg version="1.1" id="Laag_1" xmlns="http://www.w3.org/2000/svg" xmlns:xlink="http://www.w3.org/1999/xlink" x="0px" y="0px"
	 viewBox="0 0 300 300" enable-background="new 0 0 300 300" xml:space="preserve">
<path id="Instagram" fill="#010202" d="M233.5,45.9H66.5c-14.4,0-26.4,11.4-26.4,25.8v167.7c0,14.4,12,25.8,26.4,25.8h167.1
	c14.4,0,26.4-11.4,26.4-25.8V71.7C259.3,57.9,247.9,45.9,233.5,45.9z M197.6,80.7c0-3.6,3-6.6,6.6-6.6h20.4c3.6,0,6.6,3,6.6,6.6V101
	c0,3.6-3,6.6-6.6,6.6h-20.4c-3.6,0-6.6-3-6.6-6.6V80.7z M149.7,114.2c23.4,0,42.5,18.6,42.5,41.9S173.1,198,149.7,198
	c-23.4,0-41.9-18.6-41.9-41.9S126.3,114.2,149.7,114.2z M238.9,238.2c0,3.6-3,6.6-6.6,6.6H67.7c-3.6,0-6.6-3-6.6-6.6v-103h27.5
	c-3.6,5.4-4.8,15-4.8,21c0,36.5,29.9,66.5,67.1,66.5s67.1-29.9,67.1-66.5c0-6-0.6-15.6-5.4-21h27.5v103H238.9z"/>
</svg>
