<?xml version="1.0" encoding="utf-8"?>
<!-- Generator: Adobe Illustrator 18.1.1, SVG Export Plug-In . SVG Version: 6.00 Build 0)  -->
<svg version="1.1" id="Laag_1" xmlns="http://www.w3.org/2000/svg" xmlns:xlink="http://www.w3.org/1999/xlink" x="0px" y="0px"
	 viewBox="0 0 1000 1000" enable-background="new 0 0 1000 1000" xml:space="preserve">
<path fill="#FFFFFF" d="M499.9,0C224.2,0,0,224.2,0,499.9s224.2,499.9,499.9,499.9s499.9-224.2,499.9-499.9
	C1000,224.2,775.5,0,499.9,0"/>
<path fill="#29292A" d="M609.8,583.6c0,6.5-4.8,5.5-8.9,6.5c-0.3,0.1-0.2,2.8-2,3.2c-0.9,0.2-1.9-1.4-3.1-1.3
	c-5.6,0.6-10.7-0.4-17.5-0.5c-5.8-0.1-11.2,1-18.2,1.4c-5.5,0.3-11.4,0.6-16.3,1.3c-3.1,0.4-6.5,2.2-9.9,1.8
	c-2.6-0.3-4.6-2.2-6.9-2.8c-3.5-0.9-7.1-0.5-11.3-3c-3.5-2.1-6.4-4.6-8.4-8.2c-4.6-8.1-3.2-21.4-3.3-30.4
	c-0.1-11.3-1.6-22.3-1.2-33.4c0.1-3.3,0.9-6.9,1.3-10.3c0.2-1.6,0.3-3.3,0.5-4.9c0.2-1.3-2.1,0.1-2.1-1.6c5.6-1.3,3.2-29.7,3.3-36.5
	c0.1-13.8,1.3-26.3,2.2-39.9c1.2-17.6,2.6-35.2,3.2-52.9c0.6-18.6,0.9-38.7,4-56.9c2.1-5.6,1-12.8,1.4-19.1c0.3-6,0.7-11.7,0.7-17.6
	c0-8.6,0.2-17,0-25.3c-0.2-7.5,3.1-10.5,9.2-14.1c6.5-3.9,14.5-7.3,22.2-7.4c0.8,0,1.4,1.9,2.3,1.9c0.9,0,2.1-1.5,3-1.4
	c1.3,0.2,3.5,0.7,4.8,0.8c3.5,0.3,12.7-0.6,14.7,1.8c2.1-2.8,4.2-1,5.8,1.4c3.8-5.4,7.8,4.6,9.4,7c4,6.3,7.2,15.1,0.5,21.2
	c-1.3,1.2-1.8,0.9-2.9,1.4c-3.7,1.7-3.3,0-6.1,0.9c-1.8,0.6-4.3,3.1-6.4,3.4c-6.7,0.7-14.7-4.4-19.6,4.1c-2.4,4.2-1.1,14.7-1.3,19.5
	c-0.2,4.6-0.5,9-0.9,13.6c-1.2,12.2-0.9,24.5-1.2,36.5c-0.2,7.7,0,16.4-0.8,24.6c-0.5,5.5-1.2,11.2-1.3,17c-0.1,3.5,1.2,6.4,1.2,9.8
	c3.5-0.7,4.6,1,7.3,1.4c2.3,0.4,8.3,0,10.7-0.4c3-0.5,5.1-2.5,8.3-2.8c3.3-0.3,6,1,9,1.6c5.2,1,6.3,1.4,8,6.1c1.2,3.1,2.7,5.6,1.7,9
	c-2.6,8.9-12.3,14-20.7,16.2c-6,1.6-8.7,2.3-13.1,5c-2.2,1.4-5.4,3.4-6.5,0.9c-2.9,2.9-7.5,5.1-9.1,9.1c-2.1,5.2-0.9,13-1.7,18.6
	c-2,13.7-3,28.5-4.3,42.7c-1.4,14.8-1.7,29.3-4.3,44.1c-1.2,6.6-1.4,8.8,1.5,14.1c1.4,2.5,1.8,5.6,1.8,8.1
	c5.5-2.7,10.5,1.1,15.7,1.2c8.4,0.1,19.7,0.7,28.1-1.6c5.7-1.6,12.6-4.8,19.3-2.4c2.8,1,5.8,4.2,7,7
	C609.6,576.2,609.3,583,609.8,583.6 M737.7,278.5L737.7,278.5C737.7,278.7,737.7,278.7,737.7,278.5L737.7,278.5 M668,322.2
	c1.1,4.4-1,8.7-0.3,13.1c0.3,2.2,1.5,3.3,1.8,5.6c0.7,5.4-1,11.8-1,17.3c-0.2,15.9-2.9,32.8-1.1,48.6c0.8,7.1,0.3,4.7,6.9,2.3
	c2.4-0.9,4.1-0.3,6.6-1.6c2.4-1.3,4.1-3.3,6.8-4.4c3.3-1.3,4.5-1.3,7.5-3c-0.7,0.4,2.2-2.4,2-2.3c-0.5,0.4,3.1-1.3,3.6-1.5
	c5-2.4,7.9-6.6,10.8-11.1c1.7-2.6,2.8-4,5-6c1.4-1.2,3.1-1.6,4.5-3.4c1.2-1.5,1-5.1,2.1-6c1.7-1.5,4.2,0.1,5.5-1.3
	c2-2.3,0.8-9.7,1.1-12.6c0.6-5.9,1.3-9.2,0.8-15c-0.3-3.4,1.9-6.8,1.5-9.6c-0.1-0.9-1.2-4.3-1.4-5.4c-0.5-2.8-0.8-5.4-1.6-7.9
	c-3.7,2.7-3.8-6.8-3.2-9.3c0.6-2.6,3,0.1,3-3.1c-1.6,0.6-4.4,0-4.4-2.6c-3.6-4.8-5.1-11.2-8.4-16.4c-1-1.6-1.9-4.4-2.7-5.4
	c-1.4-1.7-5-4.1-7.6-6.5c-4.7-4.3-8.3-10.7-13-14.2c-3-2.2-12.5-4.1-12.5-8.5c-1.7,4.7-6.5,3.2-8.6,6.3c-0.9,1.3-0.5,5.4-0.5,7.5
	c-0.1,4.2,0.2,8.4,0.1,12.7c-0.1,6.2,0,11.9-0.4,17.9C670.2,305.9,672.4,313.4,668,322.2 M732.5,547.6c-0.5-4.2,2-8,1.2-12.2
	c-0.6-3.4-4.9-8.6-1.9-13.1c-3.3,0-3.3-14.7-4.9-18.1c-3.4-7.5-7.7-14.7-12.9-21.2c-5.6-6.9-11.8-12-18.3-17.5
	c-2.6-2.2-9.1-11.5-12.8-11.5c-5.2,2.3-11.1-2.1-16.1-2.1c0,1.1-1.2,2-1.6,3c-1,2.5,0.6,7.4,0.5,10.1c-0.2,5.1-0.5,10.7-1,15.4
	c-1,9.9-0.1,21-1.2,31.1c-1,9.4-0.9,20,1.1,29.2c1.3,6.1-0.4,10.9,0.1,16.6c0.4,4.7,6.1,20.1,2.1,24.1c1.9-0.4,7.7,0,4.2,3.5
	c1.2,2.5,16.9-4,20.1-4.9c7.3-1.9,12.3-3.2,19.2-6.6c4.1-2,8.3-4,11.2-7.6c1.9-2.4,1.8-4.4,3.5-7.1c0.5-0.8,2.3-0.7,3.1-1.9
	c0.6-0.8,0.1-1.7,0.5-2.3C730,552.3,730,549.5,732.5,547.6 M743.7,470.7L743.7,470.7L743.7,470.7L743.7,470.7z M765.5,526.3
	c2.4,1.8-3,17.4-3.7,20.1c-1.9,6.4-3.8,11-7.7,16.4c-3.5,4.9-4.8,8.1-9.4,11c-1.4,0.9-2.6,0.9-4,1.9c-1.4,1.1-0.6,2.2-1.7,3.4
	c-1.3,1.2-7.2,4.6-8.6,3.7c-0.4,6-18.1,8.6-23.6,11.2c-13.4,6.1-28.2,9-41.2,14.5c-4.7,2-9.4,5.4-15.2,4.4
	c-2.4-0.4-11.4-5.9-12.6-7.7c-2.5-3.6,0.4-5.6,0.7-8.6c0.5-4.1-0.3-6.8-1.1-11.3c-1.9-10.6,0.7-21.4-0.2-32
	c-1.3-15.9,0.3-32.2,0.6-48.1c0.3-13.1,0.6-26.2,0.6-39.3c0.1-36.5,2.7-74.8,4-111.8c0.8-23.8,2.4-47.1,2.1-71
	c-0.1-13.9,1.1-27.4-2.1-41.4c-1.6-6.9-3.8-12.8,1.5-19.8c2.3-3,5.2-2.8,8-4.6c2.3-1.5,1.2-2.9,4.4-3.4c2.5-0.4,3,1.2,5,1.4
	c2.4,0.2,4.1-0.9,6.7-0.5c1.1,0.1,2,2,3,2.2c5.5,1.2,9,2.3,14,4c2.6,0.9,7.2,2.2,9.4,3.7c1.3,0.8,1.7,2.1,2.3,2.6
	c3.7,3.1,7.3,3.6,11.2,8.4c2.7,3.3,5.5,7.4,8.9,9.9c0.4,0.3,1.7-0.9,2.7-0.1c1.5,1.2,2.3,2.5,3.3,4c1.6,2.5,1.8,4,2,7.6
	c0.4,10.8,7.1,20.4,14,28.9c3.9,4.8,8.5,8.9,10.8,15.1c0.2,0.5,1.1-1.6,1.6,0.4c0.7,2.9-1.6,1-1.6,3c0,4.8,0.8,4.6,2.5,8.1
	c1,2,1.8,4.2,2.9,6.4c0.5,1,0.6,1.6,0.9,2.6c0.4,1.1,2.1,1.3,2.2,1.8c0.4,1.5-0.6,4-0.6,5.2c-0.2,3.1,0.9,8,0.7,11.5
	c-0.1,2.6,0.1,3.4-0.1,6.4c0,0.6,0.1,3.1-0.2,3.8c-0.6,1.5-2.8,3-3.1,3.6c-1.5,3.9-2.7,7.5-4.2,11.7c-1.3,3.6-2.5,6.2-4.1,9.8
	c-0.6,1.3,0.5,3.2,0.1,4.2c-0.5,1.2-2,1.4-2.6,3.2c-1.4,4.2-1.8,10-6.5,12c1.8,2.8-1.3,3-3.1,5c-1.2,1.4-2.2,3-3.4,4.4
	c-0.6,0.7-1.3,1-2.1,0.9c-1.4-0.2-1.9,0.8-1.6,2.8c-1.1,1-10.8,12.9-12.4,9.6c0,3.3-1.8,1.6-3,3c-0.7,0.8,0.5,2.7-0.8,4.2
	c-0.8,0.9-3.4,1.7-4.5,2.3c-3.2,1.9-8.2,3.5-7.1,7.7c0.1,0.4,7.6,7.6,8.2,8c1.5,1.1,2.5,0.3,3.8,1.1c1.9,1.1,3.8,3.6,5.8,4.9
	c6.7,4.3,14.5,8.2,20.5,12.8c1.6,1.2,3.6,1.5,5.5,4.8c2.2,3.8,3.8,8.4,6.2,12.8c3.3,5.9,5.8,11,7.8,17c1.4,4.1,3,11.5,5.6,14.1l0,0
	c-0.7,3.7,1.6,5.2,2.3,8.6C765.8,520.3,764.2,525,765.5,526.3 M260.7,440c-0.2,0-0.2,0-0.5,0C260.4,443.4,261.3,440.3,260.7,440
	 M250.2,351.4c-1.3,1.3,1.6,2.2,1.6,0.5C251.5,350.8,250.9,350.6,250.2,351.4 M250.9,363.3c-1.5,0-0.9,1.6-0.5,2.1
	c0.5,0.1,0.9-0.3,1.2-0.9l0,0l0,0l0,0l0,0l0,0l0,0l0,0C251.7,363.9,251.6,363.3,250.9,363.3 M389.8,567.9L389.8,567.9L389.8,567.9
	L389.8,567.9z M490.1,237.5c3.8,0.8-0.1,15.8-0.7,19.8c-0.7,4.9-1.6,9.4-2.7,13.9c-3.6,15.8-4.5,32.7-7.2,48.6
	c-4,23.9-8.9,47.8-13.6,71.5c-4.7,23.6-11.1,46.6-16.2,70c-5.8,26.2-9.8,52.3-14.9,78.6c-1.7,8.8-4.1,17.5-6.6,26.3
	c-2,7.1-4.6,19.7-12.8,22.1c-3.2,0.9-5.6,0.3-8.5-0.6c-5.4-1.6-4.4-1.7-8.6-6.3c-3.3-3.7-7.3-3.2-5.2-9.6c-4.2-0.6-3.1-2.7-3.7-4.2
	c-0.7-1.5-2-2.7-2.6-4.3c0.5-0.7,0.7-1.4,0.7-2.2c0-0.9-0.6-1.4-2-1.5c-3.5-9-5.8-18.8-9.4-27.6c-3.3-8.3-5.7-16.8-8.3-25.1
	c-0.8-2.5-2.9-4.6-3.4-6.4c-1-3.7,0.3-7.6-3-11.5c0,5.5-4.8,14.3-6.4,19.6c-1.8,6.2-3.6,12.7-5.3,19c-2.3,8.6-5.2,17.3-8.8,25
	c-6.3,13.5-12.9,30.3-31,25.3c-8.4-2.3-10.8-8.8-13.3-15.9c-0.9-2.5-2.9-6.3-3.5-7.6c-1.7-3.7-3.4-7.4-4.9-10.9
	c-2.6-5.9-5.2-11.6-7-17.8c-1.8-6.4-1.9-18.1-6.8-20.6c-1-1-1.4-12.6-2.3-16.2c-1.8-6.9-4-13.6-5.3-20.5c-2-10.1-3.3-20.3-4.7-30.5
	c-1.2-8.2-4-15.8-4-24.2c-0.7,1-1.3,0.9-1.9-0.2c0.9-0.3,0.9-0.6,1.9-0.7c0-10.7-1.7-21.7-2.6-32.3c-1-10.9-0.5-22.5-2.3-33.4
	c-0.1,0.1-1.9,3-1.9,0c0.5-1.1,1.1-1.2,1.9-0.5c-2-10.2-2.3-22.1-3.6-31.7c-1.4-10.5-0.1-21.3-1.8-31.9c-1.8-11.2-10-29.8-0.6-39.6
	c2.9-3,11.2-4.8,14.9-3.2c6.4,2.7,8.7,10.2,9.5,16.4c1,8.1,1.6,16,3,24.1c1.4,7.8,4.1,15.7,5.3,23.5c0.6,4-0.5,6.8-0.5,10.6
	c0,3.3,1.6,4.6,2.4,7.4c1.1,3.6-0.5,7.1-0.3,10.6c0.4,5.9,2.4,12.8,3.1,19c1.1,9.1,1.9,18.4,3.3,27.5c1.7,11.2,4.3,22.4,7.2,33.3
	c2.4,9,6.2,17.7,8.6,26.7c2.1,7.8,3.1,16.5,6.1,24c2.6,6.4,5.5,12.1,7,18.9c0.8,3.6,1.1,7.5,2.5,10.9c0.7,1.8,2.6,3,2.6,5.1
	c4.7-2.4,7-10.4,7.9-15c0.9-4.3,2.4-8.2,3.5-12.4c0.1-0.5,0.7-3.3,0.9-4c0.4-0.9,1.8-3.7,2-4.1c3.4-8.5,5.3-21.8,6.2-31.9
	c0.7-8.3,0.8-17.4,0.7-25.7c0-11.3,1.2-22.4,1.4-33.7c0.3-13.1,2.6-28.1,1.6-41.9c-0.4-6.4-1.9-32.3,4.2-35.3
	c14.9-7.5,18.7,25.9,20.1,33.7c2.3,12.8,1.9,27.2,2.7,40.9c1,16.9,3.3,33.9,5.1,51c1.9,17.8,2.4,37.2,7,54.2
	c2,7.3,5.6,15.2,8.2,22.9c1,2.9,3.8,17.8,7.5,17.8c1.5-10.7,5.1-21.4,6.8-32c1.5-9.3,3.1-19.2,4.9-28.8c2.2-11.7,5.3-22.7,7.5-34.5
	c0.5-2.6,0.5-6.1,1.6-8.5c0.6-1.3,2.3,0.1,2.8-1.1c1-2.3,1-5.9,1.7-8.5c5.8-22.9,8.2-45.7,14.4-68.3c7.1-26,11-53,18.8-78.9
	c2.4-7.9,5.2-15.2,7.1-23.3c2-8.5,3.4-10.4,10.6-13.6c6.7-2.9,10-1.8,14.7,3.9c3.2,3.8,1.9,6,0.6,10.2
	C492.1,232.5,490.1,236.5,490.1,237.5 M722.2,752.2c-12.8-1.1-19.6,20-7.3,25.3C732.8,785.1,737.2,749.9,722.2,752.2 M393.7,751
	c0.6-0.9,0.2-6.5,0-7.5c-1.2-5.9-1.4-9.5-0.7-15.2c0.4-3.6-0.6-7.1-1.2-10.8c-1.1-6.6,0.5-13.5,0.5-20.2c-0.1-12.5,0-25.2-1.5-37.5
	c-1-8.3-1.7-19.4-10.6-23.8c-6.1-3.1-9.2-1.2-13.4,3.2c-3.2,3.3-6.6,6.5-7.2,11.1c-1.1,7.3,1.9,12.9,2.8,19.8
	c0.8,6.2-0.3,12.9,0,19.1c0.1,2.5,2.4,13.6,1.1,15.6c-1,1.6-6.3,1.9-8.4,2.3c-5.3,0.9-12.6,2.2-17.8,0c-4.3-1.8-3.8-2.5-3.8-7.3
	c0.1-13.3,1.9-26.6,0.6-39.9c-0.5-5.7-1.2-11.9-6.2-14.5c-4.4-2.3-13-2.5-16.3,1.6c-4.7,5.9-0.9,20.5-0.5,27.4
	c0.8,12.6-1.6,26.2-2.3,38.8c-0.8,12.3-1.3,24.5-1.9,36.7c-0.5,10.3-0.3,18.3,5.6,27.2c5.2,7.7,11,6.9,17.4,2.5
	c9.4-6.5,6.8-27.6,6.8-38.7c0-8.2,0.6-6.5,8.2-6.6c4.5,0,18.4-2.1,20.9,0.9c2.8,3.4,0,18.3,0,22.9c0,6,0.3,14.6,8.2,15.1
	c1.9,0.1,7-1.4,8.3-1.8c2.2-0.6,6.1-1.8,7.7-3.3c3.4-3.1,3.3-8.8,3.6-12.4C394.1,753.4,394.7,751,393.7,751 M485.6,759.2
	c2-3.5-2.7-5.9-5.8-7.2c-4.2-1.8-12-0.3-16.8-0.9c-6.3-0.8-17.5,1.5-22.1-2.8c-2.5-2.4-3.8-10.1-2.9-13.5c1.4-5.4,4.7-3.7,10.1-6.3
	c5.4-2.6,16.3-8.4,17.3-15.1c0.8-5.1-1.3-8.8-5.7-10.6c-4.3-1.8-14.9,1.7-18-1.3c-3.8-3.7-1.7-20.5-0.9-26.2c1.2-7.7,6-7.5,13.5-8.1
	c5.1-0.5,14.8,0.6,19.1-2.6c3.3-2.5,4.2-4.9,3.5-9c-0.5-3-4.3-12.4-7.5-13.9c-6.8-3.2-19,0.6-26.3,0.6c-11.5-0.1-20.9-4.8-27.6,6
	c-10.6,17-6.7,42.6-7,62.3c-0.2,9.9-0.3,19.8-0.3,29.7c0,5.9-0.5,11.8-0.4,17.7c0,3.7-1.1,10.6,0.3,13.9
	c8.2,19.3,42.2,13.1,58.4,12.9c4.4-0.1,13,1.1,16.6-2.2c2.8-2.6,1.4-6.5,2.3-9.4C486,770.9,492,759.2,485.6,759.2 M529.1,675
	c-3,2.5-1.5,31.9,1.3,33.6c3,1.8,38.4-17.2,38.4-20c-6.3-6.3-17.1-9.9-24.9-13.4c-2.6-1.2-3.9-1.4-6.4-1.8c-1.4-0.2-1.7-1.2-3.3-0.9
	C531.5,672.9,532.5,676.7,529.1,675 M598.6,678c2.5,8.8,2.5,13.9-3.7,20.6c-1.8,1.9-4.6,3.6-6.1,5.4c-0.4,0.5-2.1,3.7-2.6,4
	c-1.6,0.9-2.6-1.2-4.2-0.2c-2.7,1.6-4.6,4.9-7.4,6.7c-3.3,2.1-5.4,4.3-8.7,6.4c-1.5,1-4.1,0.9-5.5,2.1c-8.5,7.2,3.1,16.6,9,22.2
	c2.2,2.2,6.6,5,7.9,5.8c1.9,1.2,5.7,2,7.7,4.1c1.5,1.6,4.2,10.8,4.5,12.8c0.9,5.5-2,10.2-7.3,10.7c-10,0.9-21.3-9-29.5-14.3
	c-7.6-5-18-10.5-23.6-17.5c-1.8,5.5-0.8,5-0.5,9.1c0.2,2,2.2,5.4-1.1,5.4c1.3,2.6-2,12-4.2,14c-2.1,1.9-10.5,1.9-13,0.6
	c-8.5-4.6-6.9-13.5-7.2-21.8c-0.6-16.8-0.9-33.5-0.9-50.3c0-14.6-4.2-35.5,3.3-48.2c8.4-14.2,23.3-13.7,36.5-7.6
	c8.4,3.9,17.1,4.6,25.3,9.2c7.5,4.2,14,9,21.9,12.5C591.7,670.9,601.9,676.1,598.6,678z M625.4,732.3c2.4,9.5,7.7,27.2,22,23.1
	c7.8-2.2,17.7-13,22.1-19.6c7.8-11.9,10.4-25.6,7.2-39.3c-2.1-9.1-9.2-15.3-18.5-16.6c-9.4-1.4-16.4,3.1-22.2,10.2
	c-3.8,4.6-6.1,10.4-7.8,16.2c-0.8,2.6-1.7,5.6-1.8,8.4c-0.1,1.3-0.3,2.7-0.7,4c-0.6,1.1-0.1,1.9,1.4,2.3
	C627.4,724.6,624.1,728.2,625.4,732.3 M704.9,690.2c0,5.8,0.7,10.8,0,16.9c-0.8,7.6-2.4,14.8-4.3,22.2c-2.8,11.1-3.6,14.6-11,22.2
	c-8.4,8.7-13.8,15.6-24,21.4c-10.6,6-23,7.1-33.5,0.3c-20.4-13.1-27.5-43.5-23.4-66.2c4.1-22.9,9.4-55.4,36.8-61.2
	C675.3,639.5,704.9,659.1,704.9,690.2"/>
</svg>
