<?xml version="1.0" encoding="utf-8"?>
<!-- Generator: Adobe Illustrator 18.1.1, SVG Export Plug-In . SVG Version: 6.00 Build 0)  -->
<svg version="1.1" id="Laag_1" xmlns="http://www.w3.org/2000/svg" xmlns:xlink="http://www.w3.org/1999/xlink" x="0px" y="0px"
	 viewBox="0 0 253.3 253.3" enable-background="new 0 0 253.3 253.3" xml:space="preserve">
<path fill="#29292A" d="M126.7,0C56.8,0,0,56.8,0,126.7s56.8,126.7,126.7,126.7s126.7-56.8,126.7-126.7C253.4,56.8,196.5,0,126.7,0"
	/>
<path fill="#FFFFFF" d="M154.5,147.9c0,3.2-5.6,2-7.6,1.9c-3.8-0.1-8.6,1.3-12.8,0.8c-5.5-0.7-6.4-4.4-6.6-9.8
	c-0.1-4.3-0.2-9.9-0.2-13.7c1.4-1.1,1-7.4,0.9-9.6c-0.1-3.4,0.1-6.5,0.5-9.7c1.1-9.1,1.3-18.7,1.8-27.8c0.9-3.2,0.5-7.3,0.6-10.7
	c0.1-4.2-0.8-6.6,3-8.7c3.3-1.8,9.6-2.6,12.6-0.7c1.1-0.8,6.8,7.2-0.8,8.3c-1.6,0.2-3.1-0.4-4.6,0.7c-2,1.6-1.1,4.6-1.3,7.1
	c-0.4,4.3-0.5,8.7-0.6,12.9c0,2.7-1.8,9-0.2,11.1c1.9,2.5,8.4-1.9,10.7,1.2c1.9,2.5-0.1,5.1-2.7,6.3c-1.2,0.5-6.4,2.4-6.8,2.1
	c-3.9,3.9-3.2,11-3.6,16.4c-0.4,4.5-1.9,10.2-1.6,14.5c0.1,1.3,1.1,2.5,1.1,3.7c1-0.5,1.9,0.1,2.7,0.2c2.5,0.1,5.2,0.2,7.8-0.2
	C150,143.6,155.8,142.6,154.5,147.9 M186.9,70.6L186.9,70.6C186.9,70.6,186.9,70.6,186.9,70.6L186.9,70.6 M169.3,81.6
	c0.7,2.7,0.2,6.4,0.1,9.1c-0.1,1.8-1.5,12.9-0.1,13.6c1.8,1,8.2-3.6,9.7-4.8c0.7-0.6,1.3-1.8,1.8-2.4c0.3-0.4,1.2-1,1.5-1.4
	c1.1-1.5,2.1-2.2,2.6-3.6c1.2-3.2,0.9-8.6-0.1-11.6c-2.1,0.3-0.1-2.7-0.1-3.1c-0.4,0.1-1.1,0-1.1-0.7c-1.3-2-2.3-4.7-3.3-6
	c-0.8-1-7.9-6-7.9-6.9c-0.5,0.8-1.5,0.9-1.9,1.5c-0.8,1.1-0.3,3.1-0.4,4.7C170.1,73.7,170.8,78.5,169.3,81.6 M185.6,138.8
	c-0.7-5.4-0.1-9.4-3.5-14.6c-1.3-2-2.9-3.9-4.7-5.6c-0.8-0.7-3.4-3.5-4.4-3.5c-1.7,0.3-3.4-1-4.5,0.2c-0.7,0.7-0.2,8-0.3,9.3
	c-0.1,3.2-0.3,6.3-0.1,9.5c0.1,1.8,0.3,3.6,0.5,5.3c0.1,1.4,1.2,7.2,0.4,8c0.6,0.1,1.8,1.1,1.2,1.1c3.1,0,7.9-1.8,10.5-3.4
	C183.8,143,183.3,140.8,185.6,138.8 M188.5,119.3L188.5,119.3L188.5,119.3L188.5,119.3z M194,133.4c1.7,1.3-3,10.2-3.9,11
	c-1.3,1.3-3.5,2.6-5,3.5c-4.8,2.7-12.2,5.6-17.7,7c-2,0.5-3.1,0.3-4.6-0.9c-1.7-1.5-1.1-2.7-1.2-5.2c-0.1-6.1,0.1-12.2,0.1-18.3
	c0-9.8,0.6-19.3,0.7-29.1c0.1-9.8,0.8-19.6,1-29.3c0.1-6.1-3.7-17.7,4.5-17.5c6.3,0.2,9.7,3.7,13.8,7.6c0.7,0.7,1.7,1,2.1,2.2
	c0.4,1.1,0.1,2.3,0.5,3.4c1.2,2.9,5.4,5.7,6.2,8.5c0.2,0.8-0.6,1-0.3,2.2c0.2,0.5,0.8,0.6,1.1,1.1c0.7,1.3,0.6,2.6,0.7,3.4
	c0.6,3.2,0.3,5.3-0.8,8.1c-1.2,3.2-2.2,6-3.9,8.7c-0.2,0.4-5.6,6.7-6,5.9c0,1.9-4,2.3-3.9,4.3c0.1,2.2,8.2,5.4,9.7,6.8
	c1,1,2.3,3.2,3.3,5.1c1.1,2,1.7,5.9,3,7.3l0,0C193.4,130,193.5,132.9,194,133.4 M66.1,111.5c-0.1,0-0.1,0-0.1,0
	C66,112.4,66.2,111.6,66.1,111.5 M63.4,89C63.2,89.2,63.4,89,63.4,89 M63.6,92.1c-0.4,0-0.2,0.4-0.1,0.5c0.1,0,0.2-0.1,0.3-0.2l0,0
	l0,0l0,0l0,0l0,0l0,0l0,0C63.8,92.2,63.7,92.1,63.6,92.1 M98.8,143.9L98.8,143.9L98.8,143.9L98.8,143.9z M124.2,60.2
	c2.2,0.4-7,43.3-8.3,48.7c-2.2,9.3-4,18.8-5.8,28.2c-0.7,3.5-1.5,13-6.8,11.8c-2.8-0.6-3.2-2.7-4.1-4.1c-1.5-2.3-2.6-6-3.8-9.2
	c-0.8-2.3-1.5-4.7-2.2-6.9c-0.5-1.4-0.8-3.6-1.7-4.7c0,2.5-2,6.2-2.7,8.7c-0.6,2.1-1.1,4.2-1.9,6.1c-0.9,2.1-1.8,4.9-3.6,6.5
	c-5.7,4.9-8.7-3.5-10.3-7.6c-2-4.9-2.9-9.2-4.1-13.8c-0.7-2.9-1.5-5.7-1.9-8.7c-0.5-2.9-2.1-8.3-2.1-10.4c1.4-0.8-0.3-14.1-0.8-16.8
	c0,0-0.5,0.7-0.5,0c0-4.5-0.3-10.6-0.9-15.9c-0.3-2.9-3.4-11.3,2.3-11.3c5.1,0,4.4,10.6,5.2,14.1c2.1,9.2,1.7,19.2,4.3,28.7
	c1.2,4.3,2.4,8.7,3.8,13c0.8,2.6,3.3,6.9,3.3,9.6c2-1,3.5-7.7,3.9-9c0.9-2.7,1.2-6,1.4-8.9c0.5-8.8,0.5-17.4,0.7-26.1
	c0-2.2-0.2-9.5,3.4-7.7c3.1,1.5,3.1,8.5,3.2,11.1c0.4,7.9,1.4,16.2,2.2,24.3c0.4,3.9,0.7,7.8,1.9,11.4c0.3,0.9,2.2,9,3.4,9
	c1.9-13.2,5.5-25.1,8.2-37.8c1.8-8.3,3.6-16.7,5.8-24.9c0.9-3.4,1.7-10.5,4.4-12.3c1.6-1.1,2.2-0.9,3.4-0.1
	C126.2,57,124.2,58.1,124.2,60.2 M183,190.6c-2.7-0.2-4.7,3.7-2.8,5.7C184.4,200.9,187.6,189.9,183,190.6 M99.8,190.3
	c0.4-0.6-0.5-3.4-0.5-4.1c0-2.2,0.1-5,0.1-7.5c0.1-4.2,1.5-14-2.3-17.1c-2.8-2.2-5.4,1-5.9,3.5c-0.7,3.5,1.1,7.6,0.8,11.3
	c-0.2,2.8,0.5,1.8-1.5,2.7c-0.8,0.4-4.1,0.7-4.9,0.1c-1.3-0.9-0.7-0.7-0.9-2.2c-0.6-3.4,0.8-7.1,0.1-10.6c-0.6-3-4.4-5.1-6.1-1.4
	c-0.9,1.9,0.4,6.1,0.3,8.2c-0.2,3.6-0.5,7.3-0.6,10.9c-0.2,4-1.9,10.1,1.4,13.2c4.7,4.4,5.8-4.8,5.8-7.7c0.1-2.6-0.5-2.7,1.1-3.6
	c0.8-0.4,5.7-0.3,6.2,0.2c2.2,2.5-2.8,8.8,2.5,9.5c0.8,0.1,3-0.6,3.6-1.1C99.4,194.1,100.2,190.3,99.8,190.3 M123.1,192.4
	c0.4-1.9-2.1-1.7-3.6-1.9c-1.8-0.2-4.5,0.2-6.2-0.4c-1.7-0.6-1.6-0.3-2.2-2.1c-0.7-2.6,0.1-2,1.5-3.1c1.5-1.2,7.4-3,4.8-6.2
	c-1.5-1.8-4.7,0-5.9-1.7c-0.5-0.8-0.3-6.6,0.7-7.5c0.8-0.7,3.7-0.5,4.8-0.7c0.9-0.1,1.8,0.1,2.6-0.5c1.6-1.2,1.2-4.5-0.6-5.7
	c-1.4-1-4.4-0.1-6.2-0.1c-3.1,0-5.8-1-7.8,1.6c-3.3,4.1-1.7,13.1-1.8,18.2c-0.1,4.2-1.6,11.6,1.3,14.6c2.9,3,11.8,2.8,15.8,1.7
	c2.1-0.6,2.4-1.3,2.7-3.3C123.4,194.9,124.2,192.4,123.1,192.4 M134.1,171c-0.9,1.9-0.2,6.4,0.2,8.5c1.4-0.4,9.8-3.7,9.8-5.1
	c-1.5-1.5-4.4-2.8-6.4-3.5C136.6,170.5,134.4,171.2,134.1,171 M151.7,171.8c1.4,4.9-2.8,6.9-5.6,8.7c-1.1,0.7-2.6,1.7-3.4,2.5
	c-0.5,0.5-1.4,0.4-1.5,1.5c-0.1,1.2,2.3,3.4,3.2,4.2c1.7,1.5,7.6,4.6,4.6,7.9c-2.5,2.7-13-5.2-14.8-7.4c-0.7,2.1-0.6,11.5-5.6,6.5
	c-1.9-1.9-1.2-6.4-1.3-9.1c-0.1-5.5-0.9-12.3,0-17.8c0.7-4.6,4.8-6.6,8.7-5.4C139.4,164.5,152.2,169.5,151.7,171.8z M158.5,185.6
	c0.6,2.3,1.3,5.3,4.1,5.8c5.8,1.1,9.6-9,9.1-13.4c-0.7-6.6-7.8-7.5-11.2-2.3C159,178,157.8,183.4,158.5,185.6 M178.6,174.9
	c0,8-1,14.1-7.2,19.2c-6.2,5.1-13.4,2.8-16.2-4.7c-2.4-6.5-1.2-19.3,4.6-24C167.2,159.5,178.6,166,178.6,174.9"/>
</svg>
