<?xml version="1.0" encoding="utf-8"?>
<svg version="1.1" id="Layer_1" xmlns="http://www.w3.org/2000/svg" xmlns:xlink="http://www.w3.org/1999/xlink" x="0px" y="0px"
	 viewBox="0 0 20 59.5" style="enable-background:new 0 0 20 59.5;" xml:space="preserve" width="20" height="20" preserveAspectRatio="xMidYMid meet">
<path d="M14.1,51.9h-0.9l-0.3-0.3c2.5-2.9,2.1-7.3-0.8-9.9c-2.9-2.6-7.3-2.1-9.9,0.8c-2.6,2.9-2.1,7.3,0.8,9.9
	c2.6,2.3,6.4,2.3,9.1,0l0.3,0.3v0.9l5.4,5.4l1.6-1.6L14.1,51.9z M7.7,51.9c-2.7,0-4.8-2.1-4.8-4.8c0-2.7,2.1-4.8,4.8-4.8
	s4.8,2.1,4.8,4.8C12.5,49.8,10.4,51.9,7.7,51.9L7.7,51.9z"/>
<path d="M6.2,35.4c-1,0-1.9,0.9-1.9,1.9c0,1,0.9,1.9,1.9,1.9s1.9-0.9,1.9-1.9C8.1,36.3,7.3,35.4,6.2,35.4z M0.5,21.3
	c0,0.6,0.4,0.9,0.9,0.9h0.9l3.4,7.2l-1.3,2.3c-0.5,0.9-0.2,2.1,0.8,2.6c0.3,0.2,0.7,0.3,0.9,0.3h10.4c0.6,0,0.9-0.4,0.9-0.9
	s-0.4-0.9-0.9-0.9H6.2l1-1.9h7c0.7,0,1.3-0.4,1.6-0.9l3.4-6.1c0.3-0.5,0.2-1-0.3-1.3c-0.2-0.1-0.3-0.1-0.5-0.1h-14l-0.7-1.3
	c-0.1-0.4-0.5-0.6-0.9-0.6H1.5C0.9,20.3,0.5,20.7,0.5,21.3z M15.7,35.4c-1,0-1.9,0.9-1.9,1.9c0,1,0.9,1.9,1.9,1.9s1.9-0.9,1.9-1.9
	C17.6,36.3,16.7,35.4,15.7,35.4z"/>
<path d="M10,0.3c2.5,0,4.7,2,4.7,4.7c0,2.5-2.2,4.5-4.7,4.5c-2.7,0-4.7-2-4.7-4.5C5.3,2.3,7.3,0.3,10,0.3z M19.4,19.7H0.5v-1.4
	c0-3.1,6.2-4.8,9.5-4.8s9.5,1.7,9.5,4.8v1.4H19.4z"/>
</svg>
